<svg
    xmlns="http://www.w3.org/2000/svg"
    viewBox="0 0 93 93"
    id="vector">
    <path
        id="path"
        d="M 46.547 75.521 C 46.547 77.16 45.6 78.649 44.118 79.344 C 43.545 79.615 42.931 79.746 42.321 79.746 C 41.355 79.746 40.398 79.414 39.625 78.773 L 16.527 59.633 L 4.225 59.633 C 1.892 59.635 0 57.742 0 55.409 L 0 38.576 C 0 36.242 1.892 34.35 4.225 34.35 L 16.528 34.35 L 39.626 15.21 C 40.888 14.164 42.638 13.941 44.119 14.641 C 45.6 15.336 46.548 16.826 46.548 18.464 L 46.547 75.521 L 46.547 75.521 Z M 62.784 68.919 C 62.681 68.926 62.582 68.93 62.48 68.93 C 61.364 68.93 60.288 68.489 59.493 67.693 L 58.928 67.126 C 57.446 65.647 57.272 63.304 58.52 61.622 C 61.684 57.356 63.354 52.299 63.354 46.994 C 63.354 41.288 61.458 35.936 57.87 31.516 C 56.504 29.836 56.63 27.396 58.161 25.866 L 58.725 25.301 C 59.569 24.457 60.7 23.997 61.924 24.07 C 63.116 24.13 64.229 24.691 64.985 25.615 C 69.962 31.705 72.591 39.099 72.591 46.995 C 72.591 54.349 70.266 61.349 65.866 67.235 C 65.131 68.216 64.007 68.832 62.784 68.919 Z M 80.252 81.976 C 79.488 82.879 78.383 83.421 77.2 83.471 C 77.142 83.473 77.083 83.475 77.023 83.475 C 75.904 83.475 74.83 83.033 74.035 82.238 L 73.48 81.683 C 71.929 80.133 71.824 77.654 73.234 75.976 C 80.048 67.872 83.802 57.58 83.802 46.994 C 83.802 35.983 79.783 25.383 72.488 17.147 C 71.009 15.475 71.084 12.944 72.658 11.364 L 73.212 10.809 C 74.034 9.983 75.102 9.528 76.327 9.567 C 77.49 9.6 78.59 10.114 79.363 10.984 C 88.181 20.912 93.038 33.702 93.038 46.994 C 93.04 59.783 88.499 72.207 80.252 81.976 Z"
        fill="#ffffff"/>
</svg>
